<?xml version="1.0" standalone="no"?><!DOCTYPE svg PUBLIC "-//W3C//DTD SVG 1.1//EN" "http://www.w3.org/Graphics/SVG/1.1/DTD/svg11.dtd"><svg t="1569659276575" class="icon" viewBox="0 0 1024 1024" version="1.1" xmlns="http://www.w3.org/2000/svg" p-id="1167" width="64" height="64" xmlns:xlink="http://www.w3.org/1999/xlink"><defs><style type="text/css"></style></defs><path d="M874.666667 768c-36.266667 0-64-27.733333-64-64L810.666667 448c0-36.266667 27.733333-64 64-64s64 27.733333 64 64l0 256C938.666667 740.266667 910.933333 768 874.666667 768zM682.666667 810.666667l0 149.333333c0 36.266667-27.733333 64-64 64s-64-27.733333-64-64l0-149.333333-85.333333 0 0 149.333333c0 36.266667-27.733333 64-64 64s-64-27.733333-64-64l0-149.333333c-46.933333 0-85.333333-38.4-85.333333-85.333333L256 426.666667c0-23.466667 19.2-42.666667 42.666667-42.666667l426.666667 0c23.466667 0 42.666667 19.2 42.666667 42.666667l0 298.666667C768 772.266667 729.6 810.666667 682.666667 810.666667zM768 341.333333 256 341.333333c0-85.333333 40.533333-160 104.533333-206.933333l-59.733333-102.4 0 0C300.8 27.733333 298.666667 25.6 298.666667 21.333333c0-12.8 8.533333-21.333333 21.333333-21.333333 8.533333 0 14.933333 4.266667 19.2 10.666667l0 0 57.6 102.4C430.933333 96 471.466667 85.333333 512 85.333333s81.066667 10.666667 115.2 27.733333l57.6-102.4 0 0C689.066667 4.266667 695.466667 0 704 0c12.8 0 21.333333 8.533333 21.333333 21.333333 0 4.266667-2.133333 6.4-2.133333 10.666667l0 0-59.733333 102.4C727.466667 181.333333 768 256 768 341.333333zM149.333333 768c-36.266667 0-64-27.733333-64-64L85.333333 448c0-36.266667 27.733333-64 64-64s64 27.733333 64 64l0 256C213.333333 740.266667 185.6 768 149.333333 768z" p-id="1168" fill="#000000"></path></svg>